<?xml version="1.0" standalone="no"?><!DOCTYPE svg PUBLIC "-//W3C//DTD SVG 1.1//EN" "http://www.w3.org/Graphics/SVG/1.1/DTD/svg11.dtd"><svg t="1563171239659" class="icon" viewBox="0 0 1024 1024" version="1.1" xmlns="http://www.w3.org/2000/svg" p-id="2760" xmlns:xlink="http://www.w3.org/1999/xlink" width="200" height="200"><defs><style type="text/css"></style></defs><path d="M444.852459 646.295082h134.295082v369.311475h-134.295082z" fill="#455A64" p-id="2761"></path><path d="M512 646.295082m-67.147541 0a67.147541 67.147541 0 1 0 134.295082 0 67.147541 67.147541 0 1 0-134.295082 0Z" fill="#455A64" p-id="2762"></path><path d="M772.196721 141.009836m-117.508196 0a117.508197 117.508197 0 1 0 235.016393 0 117.508197 117.508197 0 1 0-235.016393 0Z" fill="#F57F17" p-id="2763"></path><path d="M763.803279 646.295082h-705.049181c-28.537705 0-50.360656-21.822951-50.360655-50.360656v-33.57377c0-28.537705 21.822951-50.360656 50.360655-50.360656h705.049181c28.537705 0 50.360656 21.822951 50.360655 50.360656v33.57377c0 28.537705-21.822951 50.360656-50.360655 50.360656z" fill="#455A64" p-id="2764"></path><path d="M965.245902 646.295082h-772.196722c-28.537705 0-50.360656-21.822951-50.360655-50.360656v-33.57377c0-28.537705 21.822951-50.360656 50.360655-50.360656h772.196722c28.537705 0 50.360656 21.822951 50.360655 50.360656v33.57377c0 28.537705-21.822951 50.360656-50.360655 50.360656z" fill="#546E7A" p-id="2765"></path><path d="M814.163934 141.009836m-117.508196 0a117.508197 117.508197 0 1 0 235.016393 0 117.508197 117.508197 0 1 0-235.016393 0Z" fill="#FFA726" p-id="2766"></path><path d="M889.704918 510.321311H721.836066c-18.465574 0-33.57377-15.108197-33.573771-33.57377v-16.786885c0-18.465574 15.108197-33.57377 33.573771-33.573771h167.868852c18.465574 0 33.57377 15.108197 33.573771 33.573771v16.786885c0 18.465574-15.108197 33.57377-33.573771 33.57377zM856.131148 426.386885H688.262295c-18.465574 0-33.57377-15.108197-33.57377-33.57377v-16.786885c0-18.465574 15.108197-33.57377 33.57377-33.573771h167.868853c18.465574 0 33.57377 15.108197 33.57377 33.573771v16.786885c0 18.465574-15.108197 33.57377-33.57377 33.57377zM889.704918 342.452459H721.836066c-18.465574 0-33.57377-15.108197-33.573771-33.57377v-16.786886c0-18.465574 15.108197-33.57377 33.573771-33.57377h167.868852c18.465574 0 33.57377 15.108197 33.573771 33.57377v16.786886c0 18.465574-15.108197 33.57377-33.573771 33.57377z" fill="#F57F17" p-id="2767"></path><path d="M931.672131 510.321311h-167.868852c-18.465574 0-33.57377-15.108197-33.573771-33.57377v-16.786885c0-18.465574 15.108197-33.57377 33.573771-33.573771h167.868852c18.465574 0 33.57377 15.108197 33.573771 33.573771v16.786885c0 18.465574-15.108197 33.57377-33.573771 33.57377zM898.098361 426.386885h-167.868853c-18.465574 0-33.57377-15.108197-33.57377-33.57377v-16.786885c0-18.465574 15.108197-33.57377 33.57377-33.573771h167.868853c18.465574 0 33.57377 15.108197 33.57377 33.573771v16.786885c0 18.465574-15.108197 33.57377-33.57377 33.57377zM931.672131 342.452459h-167.868852c-18.465574 0-33.57377-15.108197-33.573771-33.57377v-16.786886c0-18.465574 15.108197-33.57377 33.573771-33.57377h167.868852c18.465574 0 33.57377 15.108197 33.573771 33.57377v16.786886c0 18.465574-15.108197 33.57377-33.573771 33.57377z" fill="#FFA726" p-id="2768"></path><path d="M534.494426 97.296787L88.567607 216.769049l-21.72223-81.080656L512.75541 16.216131z" fill="#455A64" p-id="2769"></path><path d="M88.970492 208.157377h461.639344v303.842623H88.970492z" fill="#B0BEC5" p-id="2770"></path><path d="M88.970492 208.157377h461.639344v83.934426H88.970492z" fill="#455A64" p-id="2771"></path><path d="M88.970492 208.157377m-41.967213 0a41.967213 41.967213 0 1 0 83.934426 0 41.967213 41.967213 0 1 0-83.934426 0Z" fill="#455A64" p-id="2772"></path><path d="M565.248 89.037639L119.354754 208.509902l-21.722229-81.080656L543.52577 7.990557z" fill="#546E7A" p-id="2773"></path><path d="M340.77377 62.111475l80.57705-21.82295 62.111475 70.504918L402.885246 132.616393zM167.868852 109.114754l82.255738-21.822951 62.111476 70.504918-80.57705 21.822951zM122.544262 208.157377h461.639345v303.842623H122.544262z" fill="#CFD8DC" p-id="2774"></path><path d="M122.544262 208.157377h461.639345v83.934426H122.544262z" fill="#546E7A" p-id="2775"></path><path d="M122.544262 208.157377m-41.967213 0a41.967213 41.967213 0 1 0 83.934426 0 41.967213 41.967213 0 1 0-83.934426 0Z" fill="#546E7A" p-id="2776"></path><path d="M332.380328 208.157377h-83.934426l-41.967213 83.934426h83.934426zM510.321311 208.157377h-83.934426l-41.967213 83.934426h83.934426z" fill="#CFD8DC" p-id="2777"></path><path d="M512 646.295082h134.295082v369.311475h-134.295082z" fill="#546E7A" p-id="2778"></path><path d="M579.147541 646.295082m-67.147541 0a67.147541 67.147541 0 1 0 134.295082 0 67.147541 67.147541 0 1 0-134.295082 0Z" fill="#546E7A" p-id="2779"></path></svg>