<?xml version="1.0" encoding="UTF-8"?>
<svg id="_图层_1" data-name="图层 1" xmlns="http://www.w3.org/2000/svg" xmlns:xlink="http://www.w3.org/1999/xlink" viewBox="0 0 566.93 566.93">
  <defs>
    <style>
      .cls-1 {
        fill: #fff;
      }

      .cls-2 {
        fill: url(#_未命名的渐变_3);
      }
    </style>
    <linearGradient id="_未命名的渐变_3" data-name="未命名的渐变 3" x1="0" y1="283.46" x2="566.93" y2="283.46" gradientUnits="userSpaceOnUse">
      <stop offset="0" stop-color="#ff8c25"/>
      <stop offset="1" stop-color="#ff4513"/>
    </linearGradient>
  </defs>
  <rect class="cls-2" x="0" y="0" width="566.93" height="566.93" rx="48.24" ry="48.24"/>
  <g>
    <path class="cls-1" d="M377.06,82.65c-22.23-11.09-45.85-19.46-70.34-24.79-78.94-17.19-139.36,1.76-181.72,27.44C67.1,120.39,31.58,183.49,31.32,251.19c0,.34,0,.68,0,1.02,0,145.15,119.15,262.83,266.14,262.83,0,0,111.35,14.34,81.94-93.02,0,0-6.51-34.56-81.94-45.59-75.42-11.03-157.05-131.62-131.31-208.1,0,0,27.21-131.62,206.63-83.09l18.39,4.92"/>
    <path class="cls-1" d="M468.41,152.45c-2.9-3.21-5.8-6.31-8.69-9.29l8.37,13.39c15.9,25.45,26.48,53.97,30.11,83.75,4.7,38.53-2,76.91-42.7,108.92-60.3,47.43-12.5,82.36-12.5,82.36,65.08,33.46,84.19-64.71,84.19-64.71,26.76-91.85-15.02-165.91-58.78-214.42"/>
    <g>
      <rect class="cls-1" x="460.71" y="202.11" width="13.23" height="42.81" rx="2.9" ry="2.9" transform="translate(690.84 -243.81) rotate(90)"/>
      <rect class="cls-1" x="189.1" y="202.29" width="13.58" height="43.01" rx="2.9" ry="2.9" transform="translate(419.69 27.9) rotate(90)"/>
    </g>
    <g>
      <rect class="cls-1" x="299.44" y="92.28" width="13.23" height="42.81" rx="2.9" ry="2.9" transform="translate(-18.03 74.15) rotate(-13.42)"/>
      <rect class="cls-1" x="362.54" y="337.02" width="13.58" height="43.01" rx="2.9" ry="2.9" transform="translate(-73.13 95.52) rotate(-13.42)"/>
    </g>
    <path class="cls-1" d="M391.81,180.39c-3.7-3.45-9.5-3.26-12.95,.44l-49.98,53.53-27.84-26c-3.7-3.45-9.5-3.26-12.95,.44-3.45,3.7-3.26,9.5,.44,12.95l27.84,26-6.06,6.49c-3.45,3.7-3.26,9.5,.44,12.95h0c3.7,3.45,9.5,3.26,12.95-.44l6.06-6.49,7.23,6.75c3.7,3.45,9.5,3.26,12.95-.44h0c3.45-3.7,3.26-9.5-.44-12.95l-7.23-6.75,49.98-53.53c3.45-3.7,3.26-9.5-.44-12.95Z"/>
  </g>
</svg>